<?xml version="1.0" encoding="UTF-8" standalone="yes"?>
<!DOCTYPE svg PUBLIC "-//W3C//DTD SVG 1.1//EN" "http://www.w3.org/Graphics/SVG/1.1/DTD/svg11.dtd">

<svg width="500" height="500" viewBox="0 0 500 500" xmlns="http://www.w3.org/2000/svg" xmlns:xlink="http://www.w3.org/1999/xlink" version="1.1" baseProfile="full">
    <g transform="scale(1,-1) translate(0,-500)">
        <path d="M 256.685986 138.300960 C 256.685986 203.683200 203.683200 256.685986 138.300960 256.685986 C 72.918715 256.685986 19.915935 203.683200 19.915935 138.300960 C 19.915935 72.918715 72.918715 19.915935 138.300960 19.915935 C 203.683200 19.915935 256.685986 72.918715 256.685986 138.300960 Z M 275.601920 138.300960 C 275.601920 62.471731 214.130190 1.000000 138.300960 1.000000 C 62.471731 1.000000 1.000000 62.471731 1.000000 138.300960 C 1.000000 214.130190 62.471731 275.601920 138.300960 275.601920 C 214.130190 275.601920 275.601920 214.130190 275.601920 138.300960 Z" transform="scale(1.000000,1.000000) translate(61.518516,161.898080)" fill="#fffefe" opacity="1.000000"></path>
        <path d="M 137.541148 4.306895 L 4.341562 136.932349 C -0.100280 141.355045 -0.115801 148.541173 4.306895 152.983011 C 8.729591 157.424862 15.915718 157.440379 20.357561 153.017682 L 153.557151 20.392227 C 157.998990 15.969531 158.014518 8.783403 153.591822 4.341562 C 149.169125 -0.100280 141.982998 -0.115801 137.541148 4.306895 Z" transform="scale(1.000000,1.000000) translate(280.582770,61.500000)" fill="#fffefe" opacity="1.000000"></path>
    </g>
</svg>