<?xml version="1.0" encoding="UTF-8" standalone="yes"?>
<!DOCTYPE svg PUBLIC "-//W3C//DTD SVG 1.1//EN" "http://www.w3.org/Graphics/SVG/1.1/DTD/svg11.dtd">

<svg width="500" height="500" viewBox="0 0 500 500" xmlns="http://www.w3.org/2000/svg" xmlns:xlink="http://www.w3.org/1999/xlink" version="1.1" baseProfile="full">
    <g transform="scale(1,-1) translate(0,-500)">
        <path d="M 8.850417 333.661420 C 6.142024 333.661420 3.590638 333.465159 1.000000 333.308151 L 20.547539 1.000000 L 53.244527 1.000000 L 40.310959 330.972669 C 29.968044 332.405369 19.448480 333.661420 8.850417 333.661420 Z" transform="scale(1.000000,1.000000) translate(136.357842,-1.000000)" fill="#e0e0e0" opacity="1.000000"></path>
        <path d="M 1.000000 1.000000 L 33.696995 1.000000 L 53.323039 334.642719 L 14.070952 334.642719 Z" transform="scale(1.000000,1.000000) translate(319.488448,-0.999993)" fill="#e0e0e0" opacity="1.000000"></path>
        <path d="M 32.480178 333.681054 C 31.695136 333.327785 30.851216 332.935264 29.928792 332.523117 L 29.398878 332.267988 L 17.426999 327.911003 C 12.500862 326.694189 6.868187 326.340920 1.000000 326.262416 L 5.769129 1.000000 L 54.834237 1.000000 L 59.662244 331.070813 C 56.247312 330.796048 52.694999 330.423154 49.692213 330.423154 C 44.628688 330.442757 37.975465 330.854902 32.480178 333.681054 Z" transform="scale(1.000000,1.000000) translate(224.753540,-1.000000)" fill="#e0e0e0" opacity="1.000000"></path>
        <path d="M 356.741656 104.625508 C 304.968153 113.692741 264.950650 79.190156 225.541557 79.759312 C 237.729330 86.628427 251.604942 101.877863 262.458146 121.837550 C 279.905698 153.847628 283.006614 185.779198 269.405765 193.178218 C 257.512383 199.674438 236.708777 185.131540 220.007015 159.912073 C 218.927582 163.130744 217.965906 166.329789 216.631335 169.568087 C 198.516497 212.666880 163.071861 238.867644 137.440253 228.092950 C 111.847893 217.337875 105.763821 173.689556 123.878656 130.571138 C 133.102896 108.648848 146.801874 91.201294 161.403650 80.662110 C 110.827338 101.328329 64.235109 157.341058 1.000000 78.267733 L 9.596207 31.655880 C 72.164032 109.551649 153.729867 49.495953 197.888464 69.632273 C 202.343576 71.653756 205.483743 72.968701 207.053827 73.969629 C 207.858494 73.969629 208.506154 73.891125 209.330448 73.930377 C 221.184577 59.878129 292.328987 86.863939 340.236158 74.538784 C 363.924793 68.454711 357.055677 24.315739 353.032339 1.000000 L 389.831170 26.140962 C 414.991761 70.888343 385.474197 99.601240 356.741656 104.625508 Z M 198.634255 82.605083 C 196.710903 81.800416 194.689421 81.368643 192.628686 81.192008 C 192.510930 81.172382 192.373548 81.152756 192.255791 81.113504 C 176.888600 80.092950 158.400866 95.813411 148.332708 119.757183 C 136.831846 147.135513 140.698177 174.867115 156.968167 181.696974 C 173.238157 188.526837 195.768855 171.903578 207.269716 144.505622 C 207.937001 142.915913 208.368774 141.365456 208.918303 139.775746 C 198.241735 116.754398 195.238950 95.185374 200.714617 83.900403 C 199.988457 83.507882 199.419296 82.938730 198.634255 82.605083 Z M 206.936078 89.513455 C 203.501521 96.873222 205.601507 110.945095 212.706135 125.821636 C 215.296766 110.964720 213.157523 97.697512 206.936078 89.513455 Z M 217.612640 84.626569 C 226.895758 98.482555 229.329387 120.424472 224.305120 144.407497 C 233.784499 156.104620 244.264805 162.227945 250.662897 158.714882 C 259.278731 154.024258 257.335752 133.730929 246.247038 113.398348 C 237.729345 97.776020 226.346223 86.765812 217.612640 84.626569 Z" transform="scale(1.000000,1.000000) translate(49.826611,269.486124)" fill="#e0e0e0" opacity="1.000000"></path>
    </g>
</svg>