<?xml version="1.0" encoding="UTF-8" standalone="yes"?>
<!DOCTYPE svg PUBLIC "-//W3C//DTD SVG 1.1//EN" "http://www.w3.org/Graphics/SVG/1.1/DTD/svg11.dtd">

<svg width="500" height="500" viewBox="0 0 500 500" xmlns="http://www.w3.org/2000/svg" xmlns:xlink="http://www.w3.org/1999/xlink" version="1.1" baseProfile="full">
    <g transform="scale(1,-1) translate(0,-500)">
        <path d="M 211.844686 422.677530 C 95.390657 422.677530 1.000000 328.286904 1.000000 211.831543 C 1.000000 125.298369 53.177316 51.034010 127.738469 18.549594 L 130.485892 71.770982 C 130.485892 114.114329 99.190004 100.547958 99.190004 130.166759 C 99.190004 146.768161 99.708763 181.359112 99.708763 207.329557 C 99.708763 276.536403 129.096423 343.483070 136.315619 358.421829 C 143.578150 373.344842 160.660216 389.625768 160.844085 373.955520 C 160.844085 351.219703 161.813295 86.845011 161.813295 86.845011 L 161.767325 86.845011 L 165.001983 6.417353 C 180.100971 2.968633 195.726581 1.000000 211.845988 1.000000 C 220.681867 1.000000 229.318099 1.717061 237.878180 2.771638 L 244.851791 137.917837 C 227.639710 141.685689 212.960981 152.642536 203.752135 166.390140 C 192.346140 183.481392 212.518393 334.580235 212.518393 334.580235 L 225.656632 334.580235 L 225.656632 192.772981 L 238.687163 192.772981 L 238.687163 334.580235 L 252.923325 334.580235 L 252.923325 192.772981 L 265.910521 192.772981 L 265.910521 334.580235 L 280.695614 334.580235 L 280.695614 192.772981 L 293.711720 192.772981 L 293.711720 334.580235 L 303.782079 334.580235 C 303.782079 334.580235 323.939887 183.480089 312.540464 166.390140 C 303.416986 152.780435 288.889279 141.855113 271.891269 137.979574 C 271.586581 137.887645 271.312105 137.765503 271.312105 137.765503 L 277.904855 11.698129 C 361.949345 39.421843 422.694620 118.478415 422.694620 211.831563 C 422.674967 328.285602 328.284279 422.677530 211.844686 422.677530 Z" transform="scale(1.000000,1.000000) translate(38.169749,38.169119)" fill="#268c31" opacity="1.000000"></path>
        <path d="M 251.015096 501.000000 C 113.175321 501.000000 1.000000 388.848300 1.000000 251.000671 C 1.000000 113.183225 113.175321 1.000000 251.015096 1.000000 C 388.848300 1.000000 501.001302 113.183194 501.001302 251.000631 C 501.000000 388.848300 388.848300 501.000000 251.015096 501.000000 Z M 251.015096 19.646199 C 123.436110 19.646199 19.638322 123.436110 19.638322 251.000631 C 19.638322 378.579637 123.436120 482.377393 251.015096 482.377393 C 378.579637 482.377393 482.385287 378.579597 482.385287 251.000631 C 482.383985 123.436110 378.578335 19.646199 251.015096 19.646199 Z" transform="scale(1.000000,1.000000) translate(-1.000651,-1.000000)" fill="#268c31" opacity="1.000000"></path>
    </g>
</svg>