<svg width="500" height="500" xmlns="http://www.w3.org/2000/svg" baseProfile="full"><g fill="#268c31"><path d="M250.014 39.153C133.56 39.153 39.17 133.544 39.17 250c0 86.534 52.177 160.798 126.738 193.282l2.748-53.221c0-42.343-31.296-28.777-31.296-58.396 0-16.601.519-51.192.519-77.163 0-69.207 29.387-136.153 36.606-151.092 7.263-14.923 24.345-31.204 24.529-15.534 0 22.736.969 287.11.969 287.11h-.046l3.235 80.429c15.099 3.448 30.724 5.417 46.844 5.417 8.836 0 17.472-.717 26.032-1.772l6.974-135.146c-17.213-3.768-31.891-14.725-41.1-28.472-11.406-17.092 8.766-168.19 8.766-168.19h13.138v141.807h13.03V127.25h14.237v141.807h12.987V127.25h14.785v141.807h13.016V127.25h10.07s20.159 151.1 8.76 168.19c-9.124 13.61-23.652 24.535-40.65 28.41-.305.092-.58.214-.58.214l6.594 126.068c84.044-27.724 144.79-106.78 144.79-200.134-.02-116.454-94.411-210.846-210.85-210.846z"/><path d="M250.014 0C112.174 0 0 112.152 0 250c0 137.817 112.176 250 250.015 250 137.834 0 249.987-112.183 249.987-250C499.999 112.151 387.848 0 250.014 0zm0 481.354c-127.579 0-231.376-103.79-231.376-231.355 0-127.579 103.797-231.376 231.376-231.376 127.565 0 231.37 103.797 231.37 231.376 0 127.565-103.806 231.355-231.37 231.355z"/></g></svg>